# xmcd
#
# Track frame offsets: 
#        150
#        16547
#        33785
#        50420
#        70105
#        86677
#        106415
#        120092
#        130482
#        148435
#        162235
#        182185
#
# Disc length: 2695 seconds
#
# Revision: 2
# Processed by: cddbd v1.4PL0 Copyright (c) Steve Scherf et al.
# Submitted via: ExactAudioCopy v0.90b3
#
DISCID=9b0a850c
DTITLE=Various Artist - New Beats From The Delta
DYEAR=2000
DGENRE=Acid Jazz
TTITLE0=Johnny Farmer and Organized Noize - Death Letter
TTITLE1=Junior Kimbrough and Go Gittas Camp and Shrive Alive - I'm Leaving
TTITLE2=Junior Kimbrough and Go Gittas Camp - Do The Romp
TTITLE3=Cedell Davis and Shrive Alive - Baby, I Love You So
TTITLE4=T-Model Ford and Big Oomp - To The Left To The Right
TTITLE5=Junior Kimbrough and Go Gittas Camp and Shrive Alive - Stay All Ni
TTITLE5=ght
TTITLE6=T-Model Ford and Go Gittas Camp - Cut You Loose
TTITLE7=T-Model Ford and Big Oomp - Waiting For You
TTITLE8=Johnny Farmer and Go Gittas Camp - I've Been Crazy
TTITLE9=Asie Payton and Go Gittas Camp - Ooh Baby
TTITLE10=T-Model Ford and Shrive Alive - If I Had Wings
TTITLE11=Johnny Farmer and Organized Noize - Death Letter
EXTD=
EXTT0=
EXTT1=
EXTT2=
EXTT3=
EXTT4=
EXTT5=
EXTT6=
EXTT7=
EXTT8=
EXTT9=
EXTT10=
EXTT11=
PLAYORDER=
